<svg xmlns="http://www.w3.org/2000/svg" viewBox="0 0 8000 8000"><circle cx="4000" cy="4000" r="4000" fill="transparent"/><g transform="matrix(.75 0 0 .75 1000 1000)"><path fill="#ffe480" d="M1404.94 2404.751q.302.599.64 1.2c-.22-.4-.43-.8-.64-1.2m-6.57-12.193c.01.02.02.04.02.05.02.02.04.05.05.07-.02-.04-.05-.08-.07-.12M7957.228 6407.81c-75.302-453.82-341.312-1051.686-631.766-1536.84-217.581 280.414-443.7 543.127-695.662 796.785 151.96 272.226 381.52 831.339 371.786 1131.07-3.35 103.138-84.6 186.384-187.484 193.036-323.69 20.928-761.15-169.81-1126.964-352.011-274.089 250.37-539.73 478.972-815.028 690.203 570.856 338.568 1305.543 669.742 1904.466 668.083 872.776 46.267 1378.684-776.203 1180.652-1590.326m-2708.07-724.244c1101.914-1101.012 2353.037-2527.312 2708.112-4090.57 253.937-1273.8-760.347-1869.981-1895.16-1469.666 211.65 278.235 364.227 589.34 457.73 914.988 86.81-20.202 196.932-34.81 289.995-31.502 103.34 3.673 186.936 86.382 191.608 189.774 13.965 309.07-235.737 902.802-402.139 1193.84 0 .01-.01.02-.01.03l-.05.08C5974.797 3533.63 5007.35 4598.963 3998.947 5467.606l-.23-.2c-263.644 226.463-526.16 433.987-804.244 626.569l1.199 1.05c-509.317 353.048-1419.467 925.335-2012.134 893.445-103.826-5.587-186.238-90.187-188.679-194.227-6.979-297.532 215.642-843.718 363.839-1111.118-237.053-259.944-464.71-529.693-686.317-814.384-1228.34 1900.326-772.836 3911.207 1772.962 2814.863 1004.953-454.636 1968.005-1208.057 2803.816-2000.04m-2720.94-1683.177c-468.171-551.206-806.891-1020.885-1125.165-1599.135h-.01c-.002-.027-.021-.045-.03-.08h-.01c-.002-.031-.042-.051-.04-.09 0 0-.01 0-.01-.01-1.466-2.7-3.08-5.725-4.563-8.465.02.02.04.05.05.07-165.01-287.237-415.647-882.63-403.532-1193.47 4.08-104.665 88.128-188.31 192.713-192.04 92.115-3.286 200.694 10.469 286.628 30.62 93.583-325.698 246.27-636.854 458.06-915.098C797.664-275.846-214.187 319.255 39.328 1592.998 248.088 2719.243 1179.883 3947.143 1904.63 4799.2c-1.249 1.77 1.238-1.769 0 0 177.92 202.676 363.178 406.522 558.173 604.082 267.3-191.503 530.824-396.108 795.108-617.744-259.101-257.466-503.734-520.639-729.693-785.15m-1107.62-1566.523a875 875 0 0 1 2.596 4.827 987 987 0 0 1-2.597-4.827m36.806 68.402c.928 1.699 1.837 3.398 2.736 5.077-.9-1.65-1.808-3.348-2.736-5.077m-54.39-101.094c-.01-.01-.02-.03-.03-.04.01.01.02.03.02.04.02.03.03.05.04.07zm1.926 3.578q.302.599.64 1.2c-.22-.4-.43-.8-.64-1.2"/><path fill="#fff" d="M2762.563 2987.44c-683.417-683.421-683.417-1791.462 0-2474.878 683.418-683.418 1791.459-683.418 2474.879 0 683.41 683.416 683.41 1791.457 0 2474.877L4000.002 4224.88z"/></g></svg>