<?xml version="1.0" encoding="UTF-8"?>
<svg xmlns="http://www.w3.org/2000/svg" xmlns:xlink="http://www.w3.org/1999/xlink" width="512px" height="512px" viewBox="0 0 512 512" version="1.1">
<g id="surface1">
<path style=" stroke:none;fill-rule:nonzero;fill:rgb(100%,89.411765%,50.196081%);fill-opacity:1;" d="M 131.4375 179.429688 C 131.445312 179.445312 131.457031 179.464844 131.46875 179.484375 C 131.457031 179.464844 131.445312 179.445312 131.4375 179.429688 Z M 131.121094 178.84375 C 131.125 178.847656 131.125 178.847656 131.125 178.847656 C 131.125 178.847656 131.121094 178.84375 131.121094 178.84375 Z M 445.945312 371.574219 C 442.332031 349.792969 429.5625 321.09375 415.621094 297.804688 C 405.179688 311.265625 394.324219 323.875 382.230469 336.050781 C 389.523438 349.117188 400.542969 375.957031 400.074219 390.34375 C 399.914062 395.292969 396.015625 399.289062 391.078125 399.609375 C 375.539062 400.613281 354.542969 391.457031 336.984375 382.710938 C 323.828125 394.730469 311.074219 405.703125 297.859375 415.84375 C 325.261719 432.09375 360.527344 447.988281 389.277344 447.910156 C 431.167969 450.132812 455.453125 410.652344 445.945312 371.574219 Z M 315.960938 336.8125 C 368.851562 283.960938 428.90625 215.5 445.949219 140.464844 C 458.136719 79.320312 409.453125 50.703125 354.980469 69.917969 C 365.140625 83.273438 372.464844 98.207031 376.953125 113.839844 C 381.121094 112.871094 386.40625 112.167969 390.871094 112.328125 C 395.832031 112.503906 399.84375 116.472656 400.070312 121.4375 C 400.738281 136.273438 388.753906 164.769531 380.765625 178.742188 L 380.765625 178.746094 C 350.789062 233.613281 304.351562 284.75 255.949219 326.445312 L 255.9375 326.433594 C 243.285156 337.304688 230.683594 347.265625 217.335938 356.511719 C 217.355469 356.527344 217.375 356.542969 217.390625 356.5625 C 192.945312 373.507812 149.257812 400.976562 120.808594 399.445312 C 115.828125 399.179688 111.871094 395.117188 111.753906 390.125 C 111.417969 375.84375 122.105469 349.625 129.21875 336.789062 C 117.839844 324.3125 106.910156 311.363281 96.273438 297.699219 C 37.3125 388.914062 59.179688 485.4375 181.375 432.8125 C 229.613281 410.992188 275.839844 374.828125 315.960938 336.8125 Z M 185.355469 256.019531 C 162.882812 229.5625 146.625 207.015625 131.347656 179.261719 C 131.347656 179.257812 131.34375 179.257812 131.34375 179.257812 C 131.34375 179.253906 131.34375 179.253906 131.34375 179.253906 C 131.34375 179.253906 131.339844 179.253906 131.339844 179.25 C 131.269531 179.121094 131.195312 178.976562 131.121094 178.84375 C 131.125 178.847656 131.125 178.847656 131.125 178.847656 C 123.203125 165.0625 111.175781 136.480469 111.753906 121.5625 C 111.953125 116.539062 115.984375 112.523438 121.003906 112.34375 C 125.425781 112.1875 130.640625 112.847656 134.765625 113.8125 C 139.257812 98.179688 146.585938 83.246094 156.75 69.890625 C 102.289062 50.757812 53.71875 79.324219 65.886719 140.464844 C 75.90625 194.523438 120.632812 253.460938 155.421875 294.363281 C 155.363281 294.445312 155.480469 294.277344 155.421875 294.363281 C 163.960938 304.089844 172.855469 313.875 182.214844 323.359375 C 195.042969 314.164062 207.695312 304.34375 220.378906 293.707031 C 207.941406 281.347656 196.199219 268.714844 185.355469 256.019531 Z M 132.1875 180.824219 C 132.230469 180.902344 132.269531 180.976562 132.3125 181.058594 C 132.273438 180.980469 132.230469 180.902344 132.1875 180.824219 Z M 133.957031 184.109375 C 134 184.191406 134.042969 184.273438 134.085938 184.351562 C 134.042969 184.273438 134 184.191406 133.957031 184.109375 Z M 131.34375 179.257812 C 131.34375 179.253906 131.34375 179.253906 131.34375 179.253906 C 131.34375 179.253906 131.34375 179.253906 131.34375 179.257812 C 131.34375 179.257812 131.34375 179.257812 131.347656 179.257812 C 131.34375 179.257812 131.34375 179.257812 131.34375 179.257812 Z M 131.4375 179.429688 C 131.445312 179.445312 131.457031 179.464844 131.46875 179.484375 C 131.457031 179.464844 131.445312 179.445312 131.4375 179.429688 Z M 131.4375 179.429688 "/>
<path style=" stroke:none;fill-rule:nonzero;fill:rgb(100%,100%,100%);fill-opacity:1;" d="M 196.601562 207.398438 C 163.800781 174.59375 163.800781 121.40625 196.601562 88.601562 C 229.40625 55.800781 282.59375 55.800781 315.398438 88.601562 C 348.199219 121.40625 348.199219 174.59375 315.398438 207.398438 L 256 266.792969 Z M 196.601562 207.398438 "/>
</g>
</svg>
